@startuml
/'la autora es imane Alouane'/

class C_Usuario<<Entity>>{ 

nombre 

fecha:Date

estatura:Integer  

peso:Integer 

genero:E_Genero 

email:String  

pasword:String 
estaActivo:BOOLEAN

fechaAlta:Date 

fechaBaja:Date [0..1] 

colorPelo:E_ColorPelo 

colorOjo: E_ColorOjos 

} 


Class C_Ficha_Preferencia<<Entity>>{ 

Edad_Maxima:Integer 

Edad_minima:Integer 

Peso_maximo:Integer 

Peso_minimo:Integer 

AlturaMaxima:Integer 

AlturaMinima:Integer 

ColorPelo: E_ColorPelo 

ColorOjo;E_ColorOjo 

Genero:E_Genero 

codigoPostal:Integer [0..1]

municipio:String [0..1]

provincia:String [0..1]



} 
class C_Aficion{
    Aficion:E_Aficiones
}
note as RN_usuarios
<b> RN-1-0a </b> Todos los datos excepto la feha de baja son obligatorios. 
Una fecha de baja nula repersentaa un usuario activo y
 viceversa un usuario que se ha dado de baja logicamente.
 <b> RN-1-0b </b> El peso(kg) y la altura(cm) son positivos
 <b> RN-1-0z </b> Los valores por defectoson 75 kg de peso, 170 cm de altura y el color de pelo es negro.
 <b> RN-1-1 </b>En el momento de alta todos los usuarios registrados deben de ser mayores de 18 años.
 <b> RN-1-2 </b> El email sirve como identificador y por tanto ha de de ser unico
 <b> RN-1-3 </b> La fecha de alta ha de ser posterior a las de nacimiento, 
 y de existir la fecha de baja debe de ser posterior a la de alta.

 end note


 note as RN_ficha
<b> RN-3-01 </b> Los rangos de estatura y peso han de ser positivos y la cota superior ha de ser maor o igual que la inferior.
Cualquier otro dato de la fica de peferencias puede especificarse con objeto de afinar las búsquedas.
Opcionalmente pueden definirse la preferencia geográfica con mayor omenor precision, especifiando el codigo postal , municipio o provincia.
Tambien se pueden especificar valores de aficiones preferidas.
end note

RN_ficha-- C_Ficha_Preferencia
RN_usuarios-- C_Usuario

C_Usuario"1"-- "*"C_Ficha_Preferencia:TienePreferencias >
C_Ficha_Preferencia"*"--"*"C_Aficion
C_Usuario"*"-- "*"C_Aficion: tienecomoAficion >

@enduml
